<svg xmlns="http://www.w3.org/2000/svg" viewBox="0 0 1600 900" preserveAspectRatio="xMidYMid slice" width="1600" height="900">
  <defs>
    <linearGradient id="base" x1="0" y1="0" x2="1" y2="1">
      <stop offset="0"   stop-color="#123a80"/>
      <stop offset="0.5" stop-color="#1b4f97"/>
      <stop offset="1"   stop-color="#0f2f6b"/>
    </linearGradient>
    <radialGradient id="green" cx="0.62" cy="0.42" r="0.75">
      <stop offset="0"    stop-color="#57a37e" stop-opacity="0.85"/>
      <stop offset="0.45" stop-color="#3f8b78" stop-opacity="0.5"/>
      <stop offset="1"    stop-color="#3f8b78" stop-opacity="0"/>
    </radialGradient>
    <radialGradient id="bloom" cx="0.5" cy="0.18" r="0.45">
      <stop offset="0"   stop-color="#eaf3ee" stop-opacity="0.55"/>
      <stop offset="1"   stop-color="#eaf3ee" stop-opacity="0"/>
    </radialGradient>
    <filter id="soft" x="-20%" y="-20%" width="140%" height="140%">
      <feGaussianBlur stdDeviation="6"/>
    </filter>
    <linearGradient id="ribbon" x1="0" y1="0" x2="1" y2="0">
      <stop offset="0"    stop-color="#ffffff" stop-opacity="0"/>
      <stop offset="0.5"  stop-color="#ffffff" stop-opacity="0.9"/>
      <stop offset="1"    stop-color="#ffffff" stop-opacity="0"/>
    </linearGradient>
  </defs>
  <rect width="1600" height="900" fill="url(#base)"/>
  <rect width="1600" height="900" fill="url(#green)"/>
  <rect width="1600" height="900" fill="url(#bloom)"/>
  <g fill="none" stroke-linecap="round">
    <path d="M-100,560 C 300,420 720,520 1080,360 C 1320,255 1500,300 1720,250" stroke="url(#ribbon)" stroke-width="10" opacity="0.55" filter="url(#soft)"/>
    <path d="M-100,620 C 320,470 760,590 1120,430 C 1360,325 1520,370 1720,320" stroke="url(#ribbon)" stroke-width="4" opacity="0.8"/>
    <path d="M-100,700 C 360,540 800,690 1180,520 C 1420,410 1560,450 1740,400" stroke="url(#ribbon)" stroke-width="6" opacity="0.35" filter="url(#soft)"/>
    <path d="M-100,760 C 380,600 820,760 1220,600 C 1460,495 1600,540 1760,500" stroke="url(#ribbon)" stroke-width="3" opacity="0.6"/>
  </g>
  <rect y="640" width="1600" height="260" fill="#0f2f6b" opacity="0.28"/>
  <path d="M1300,690 l10,26 l26,10 l-26,10 l-10,26 l-10,-26 l-26,-10 l26,-10 z" fill="#eaf3ee" opacity="0.85"/>
</svg>
